<svg width="899" height="123" viewBox="0 0 899 123" fill="none" xmlns="http://www.w3.org/2000/svg">
<rect x="0.5" y="14.5" width="898" height="104" fill="#282C33"/>
<rect x="0.5" y="14.5" width="898" height="104" stroke="#ABB2BF"/>
<path d="M40.592 53.104C41.712 53.104 42.656 53.252 43.424 53.548C44.2 53.836 44.92 54.252 45.584 54.796L44.132 56.524C43.636 56.108 43.104 55.8 42.536 55.6C41.968 55.4 41.364 55.3 40.724 55.3C39.9 55.3 39.14 55.508 38.444 55.924C37.748 56.34 37.188 57.016 36.764 57.952C36.348 58.888 36.14 60.136 36.14 61.696C36.14 63.224 36.34 64.456 36.74 65.392C37.14 66.328 37.688 67.008 38.384 67.432C39.08 67.856 39.86 68.068 40.724 68.068C41.612 68.068 42.348 67.924 42.932 67.636C43.516 67.34 44.032 67.008 44.48 66.64L45.824 68.356C45.272 68.892 44.572 69.356 43.724 69.748C42.876 70.132 41.844 70.324 40.628 70.324C39.228 70.324 37.968 69.996 36.848 69.34C35.736 68.676 34.856 67.704 34.208 66.424C33.568 65.144 33.248 63.568 33.248 61.696C33.248 59.84 33.58 58.276 34.244 57.004C34.908 55.724 35.796 54.756 36.908 54.1C38.02 53.436 39.248 53.104 40.592 53.104ZM48.6466 70V68.08H50.5066V59.236H48.6466V57.328H52.5586L53.0506 60.268C53.5226 59.204 54.1066 58.396 54.8026 57.844C55.5066 57.284 56.4106 57.004 57.5146 57.004C57.8906 57.004 58.2266 57.036 58.5226 57.1C58.8266 57.156 59.1266 57.232 59.4226 57.328L58.6186 59.632C58.3626 59.56 58.1226 59.508 57.8986 59.476C57.6746 59.436 57.4266 59.416 57.1546 59.416C56.2346 59.416 55.4386 59.76 54.7666 60.448C54.1026 61.136 53.5786 62.112 53.1946 63.376V68.08H55.7506V70H48.6466ZM57.0466 61.996V58.876L57.3826 57.328H59.4226L58.9666 61.996H57.0466ZM72.6013 66.892C72.6013 67.388 72.6773 67.752 72.8293 67.984C72.9813 68.208 73.2253 68.376 73.5613 68.488L72.9613 70.312C72.3373 70.24 71.8013 70.068 71.3533 69.796C70.9053 69.524 70.5653 69.112 70.3333 68.56C69.8693 69.144 69.2813 69.584 68.5693 69.88C67.8573 70.176 67.0973 70.324 66.2893 70.324C65.0093 70.324 63.9933 69.964 63.2413 69.244C62.4973 68.516 62.1253 67.564 62.1253 66.388C62.1253 65.052 62.6453 64.024 63.6853 63.304C64.7253 62.584 66.2133 62.224 68.1493 62.224H69.9613V61.396C69.9613 60.58 69.7133 59.992 69.2173 59.632C68.7293 59.272 68.0373 59.092 67.1413 59.092C66.7253 59.092 66.2213 59.148 65.6293 59.26C65.0373 59.364 64.4173 59.528 63.7693 59.752L63.1093 57.856C63.9013 57.56 64.6773 57.344 65.4373 57.208C66.1973 57.064 66.9013 56.992 67.5493 56.992C69.2453 56.992 70.5093 57.368 71.3413 58.12C72.1813 58.872 72.6013 59.912 72.6013 61.24V66.892ZM67.1053 68.344C67.6493 68.344 68.1813 68.2 68.7013 67.912C69.2213 67.624 69.6413 67.22 69.9613 66.7V63.904H68.4733C67.2093 63.904 66.3053 64.116 65.7613 64.54C65.2173 64.956 64.9453 65.532 64.9453 66.268C64.9453 66.94 65.1253 67.456 65.4853 67.816C65.8533 68.168 66.3933 68.344 67.1053 68.344ZM85.0119 51.94C85.7879 51.94 86.4799 52.008 87.0879 52.144C87.7039 52.272 88.2719 52.448 88.7919 52.672L87.9999 54.532C87.5759 54.356 87.1319 54.228 86.6679 54.148C86.2119 54.068 85.7479 54.028 85.2759 54.028C84.4439 54.028 83.8279 54.188 83.4279 54.508C83.0279 54.82 82.8279 55.316 82.8279 55.996V58.24H87.0639L86.7759 60.22H82.8279V70H80.1519V60.22H77.2719V58.24H80.1519V55.972C80.1519 55.172 80.3519 54.472 80.7519 53.872C81.1599 53.264 81.7279 52.792 82.4559 52.456C83.1839 52.112 84.0359 51.94 85.0119 51.94ZM102.283 69.328C101.819 69.624 101.263 69.864 100.615 70.048C99.9665 70.232 99.2905 70.324 98.5865 70.324C97.1145 70.324 95.9945 69.944 95.2265 69.184C94.4665 68.416 94.0865 67.408 94.0865 66.16V59.284H91.2665V57.328H94.0865V54.496L96.7745 54.172V57.328H101.047L100.747 59.284H96.7745V66.136C96.7745 66.816 96.9425 67.324 97.2785 67.66C97.6225 67.988 98.1825 68.152 98.9585 68.152C99.4225 68.152 99.8505 68.096 100.243 67.984C100.635 67.872 100.991 67.728 101.311 67.552L102.283 69.328ZM113.013 57.328V68.032H116.457V70H106.533V68.032H110.325V59.296H106.653V57.328H113.013ZM111.141 51.124C111.669 51.124 112.093 51.284 112.413 51.604C112.741 51.924 112.905 52.324 112.905 52.804C112.905 53.284 112.741 53.688 112.413 54.016C112.093 54.344 111.669 54.508 111.141 54.508C110.629 54.508 110.209 54.344 109.881 54.016C109.553 53.688 109.389 53.284 109.389 52.804C109.389 52.324 109.553 51.924 109.881 51.604C110.209 51.284 110.629 51.124 111.141 51.124ZM120.48 70V57.328H122.796L123 58.972C123.528 58.324 124.152 57.832 124.872 57.496C125.592 57.16 126.332 56.992 127.092 56.992C128.276 56.992 129.16 57.324 129.744 57.988C130.336 58.644 130.632 59.568 130.632 60.76V70H127.944V62.092C127.944 61.356 127.9 60.764 127.812 60.316C127.724 59.868 127.548 59.544 127.284 59.344C127.028 59.144 126.644 59.044 126.132 59.044C125.724 59.044 125.336 59.132 124.968 59.308C124.6 59.484 124.264 59.716 123.96 60.004C123.656 60.284 123.392 60.584 123.168 60.904V70H120.48ZM145.538 55.72L146.258 57.952C145.754 58.12 145.198 58.232 144.59 58.288C143.99 58.344 143.318 58.372 142.574 58.372C143.334 58.708 143.906 59.14 144.29 59.668C144.674 60.188 144.866 60.828 144.866 61.588C144.866 62.412 144.666 63.148 144.266 63.796C143.866 64.444 143.294 64.952 142.55 65.32C141.806 65.688 140.914 65.872 139.874 65.872C139.506 65.872 139.186 65.856 138.914 65.824C138.65 65.792 138.39 65.74 138.134 65.668C137.974 65.78 137.838 65.932 137.726 66.124C137.622 66.308 137.57 66.504 137.57 66.712C137.57 66.968 137.674 67.192 137.882 67.384C138.098 67.568 138.522 67.66 139.154 67.66H141.362C142.266 67.66 143.062 67.816 143.75 68.128C144.446 68.432 144.99 68.852 145.382 69.388C145.782 69.916 145.982 70.516 145.982 71.188C145.982 72.452 145.438 73.432 144.35 74.128C143.262 74.824 141.694 75.172 139.646 75.172C138.198 75.172 137.062 75.024 136.238 74.728C135.414 74.432 134.834 73.992 134.498 73.408C134.162 72.824 133.994 72.108 133.994 71.26H136.406C136.406 71.7 136.49 72.064 136.658 72.352C136.834 72.64 137.158 72.856 137.63 73C138.102 73.144 138.782 73.216 139.67 73.216C140.558 73.216 141.262 73.14 141.782 72.988C142.31 72.844 142.69 72.632 142.922 72.352C143.162 72.08 143.282 71.752 143.282 71.368C143.282 70.856 143.058 70.46 142.61 70.18C142.162 69.9 141.562 69.76 140.81 69.76H138.638C137.438 69.76 136.558 69.516 135.998 69.028C135.446 68.54 135.17 67.972 135.17 67.324C135.17 66.892 135.29 66.476 135.53 66.076C135.778 65.676 136.13 65.328 136.586 65.032C135.826 64.632 135.27 64.148 134.918 63.58C134.574 63.004 134.402 62.308 134.402 61.492C134.402 60.596 134.626 59.812 135.074 59.14C135.522 58.468 136.142 57.944 136.934 57.568C137.734 57.192 138.654 57.004 139.694 57.004C140.71 57.004 141.558 56.952 142.238 56.848C142.918 56.736 143.51 56.58 144.014 56.38C144.526 56.18 145.034 55.96 145.538 55.72ZM139.718 58.852C138.862 58.852 138.218 59.096 137.786 59.584C137.354 60.064 137.138 60.692 137.138 61.468C137.138 62.268 137.358 62.912 137.798 63.4C138.246 63.88 138.898 64.12 139.754 64.12C140.546 64.12 141.15 63.888 141.566 63.424C141.99 62.96 142.202 62.3 142.202 61.444C142.202 60.58 141.994 59.932 141.578 59.5C141.162 59.068 140.542 58.852 139.718 58.852ZM168.26 68.26C169.1 68.26 169.768 68.112 170.264 67.816C170.76 67.512 171.008 67.096 171.008 66.568C171.008 66.224 170.936 65.932 170.792 65.692C170.648 65.444 170.36 65.22 169.928 65.02C169.496 64.812 168.84 64.596 167.96 64.372C167.128 64.156 166.396 63.9 165.764 63.604C165.14 63.308 164.656 62.924 164.312 62.452C163.968 61.98 163.796 61.372 163.796 60.628C163.796 59.9 164 59.264 164.408 58.72C164.816 58.176 165.4 57.752 166.16 57.448C166.928 57.144 167.828 56.992 168.86 56.992C169.924 56.992 170.852 57.132 171.644 57.412C172.436 57.692 173.112 58.04 173.672 58.456L172.544 60.148C172.048 59.82 171.504 59.552 170.912 59.344C170.328 59.136 169.668 59.032 168.932 59.032C168.076 59.032 167.46 59.16 167.084 59.416C166.716 59.672 166.532 60.012 166.532 60.436C166.532 60.748 166.624 61.012 166.808 61.228C167 61.436 167.328 61.632 167.792 61.816C168.256 61.992 168.912 62.2 169.76 62.44C170.584 62.664 171.3 62.928 171.908 63.232C172.524 63.536 173 63.94 173.336 64.444C173.68 64.94 173.852 65.588 173.852 66.388C173.852 67.3 173.588 68.048 173.06 68.632C172.54 69.208 171.852 69.636 170.996 69.916C170.148 70.188 169.236 70.324 168.26 70.324C167.084 70.324 166.068 70.156 165.212 69.82C164.356 69.476 163.636 69.048 163.052 68.536L164.48 66.904C164.976 67.304 165.544 67.632 166.184 67.888C166.824 68.136 167.516 68.26 168.26 68.26ZM180.274 64.528C180.33 65.392 180.514 66.1 180.826 66.652C181.138 67.196 181.546 67.596 182.05 67.852C182.562 68.108 183.122 68.236 183.73 68.236C184.354 68.236 184.93 68.14 185.458 67.948C185.986 67.756 186.518 67.484 187.054 67.132L188.218 68.74C187.626 69.22 186.934 69.604 186.142 69.892C185.35 70.18 184.502 70.324 183.598 70.324C182.286 70.324 181.174 70.044 180.262 69.484C179.358 68.924 178.67 68.144 178.198 67.144C177.726 66.144 177.49 64.988 177.49 63.676C177.49 62.404 177.722 61.268 178.186 60.268C178.65 59.26 179.314 58.464 180.178 57.88C181.042 57.288 182.074 56.992 183.274 56.992C184.402 56.992 185.37 57.248 186.178 57.76C186.994 58.272 187.622 59 188.062 59.944C188.51 60.88 188.734 62.008 188.734 63.328C188.734 63.544 188.726 63.76 188.71 63.976C188.702 64.184 188.69 64.368 188.674 64.528H180.274ZM183.298 58.984C182.458 58.984 181.762 59.284 181.21 59.884C180.666 60.484 180.35 61.42 180.262 62.692H186.13C186.106 61.5 185.85 60.584 185.362 59.944C184.882 59.304 184.194 58.984 183.298 58.984ZM202.117 66.892C202.117 67.388 202.193 67.752 202.345 67.984C202.497 68.208 202.741 68.376 203.077 68.488L202.477 70.312C201.853 70.24 201.317 70.068 200.869 69.796C200.421 69.524 200.081 69.112 199.849 68.56C199.385 69.144 198.797 69.584 198.085 69.88C197.373 70.176 196.613 70.324 195.805 70.324C194.525 70.324 193.509 69.964 192.757 69.244C192.013 68.516 191.641 67.564 191.641 66.388C191.641 65.052 192.161 64.024 193.201 63.304C194.241 62.584 195.729 62.224 197.665 62.224H199.477V61.396C199.477 60.58 199.229 59.992 198.733 59.632C198.245 59.272 197.553 59.092 196.657 59.092C196.241 59.092 195.737 59.148 195.145 59.26C194.553 59.364 193.933 59.528 193.285 59.752L192.625 57.856C193.417 57.56 194.193 57.344 194.953 57.208C195.713 57.064 196.417 56.992 197.065 56.992C198.761 56.992 200.025 57.368 200.857 58.12C201.697 58.872 202.117 59.912 202.117 61.24V66.892ZM196.621 68.344C197.165 68.344 197.697 68.2 198.217 67.912C198.737 67.624 199.157 67.22 199.477 66.7V63.904H197.989C196.725 63.904 195.821 64.116 195.277 64.54C194.733 64.956 194.461 65.532 194.461 66.268C194.461 66.94 194.641 67.456 195.001 67.816C195.369 68.168 195.909 68.344 196.621 68.344ZM215.56 56.992C216.04 56.992 216.472 57.096 216.856 57.304C217.24 57.512 217.54 57.876 217.756 58.396C217.98 58.916 218.092 59.644 218.092 60.58V70H215.704V60.952C215.704 60.288 215.656 59.812 215.56 59.524C215.472 59.236 215.236 59.092 214.852 59.092C214.548 59.092 214.24 59.188 213.928 59.38C213.616 59.564 213.3 59.884 212.98 60.34V70H210.808V60.952C210.808 60.288 210.76 59.812 210.664 59.524C210.576 59.236 210.34 59.092 209.956 59.092C209.644 59.092 209.332 59.188 209.02 59.38C208.716 59.564 208.404 59.884 208.084 60.34V70H205.684V57.328H207.712L207.892 58.696C208.252 58.192 208.644 57.784 209.068 57.472C209.492 57.152 210.004 56.992 210.604 56.992C211.084 56.992 211.52 57.112 211.912 57.352C212.304 57.592 212.592 58.012 212.776 58.612C213.128 58.132 213.528 57.744 213.976 57.448C214.424 57.144 214.952 56.992 215.56 56.992ZM226.782 52.24V66.544C226.782 67.128 226.958 67.544 227.31 67.792C227.67 68.032 228.134 68.152 228.702 68.152C229.07 68.152 229.418 68.112 229.746 68.032C230.074 67.952 230.394 67.852 230.706 67.732L231.39 69.604C231.014 69.796 230.55 69.964 229.998 70.108C229.454 70.252 228.83 70.324 228.126 70.324C226.854 70.324 225.862 69.968 225.15 69.256C224.446 68.536 224.094 67.552 224.094 66.304V54.22H220.266V52.24H226.782ZM237.837 64.528C237.893 65.392 238.077 66.1 238.389 66.652C238.701 67.196 239.109 67.596 239.613 67.852C240.125 68.108 240.685 68.236 241.293 68.236C241.917 68.236 242.493 68.14 243.021 67.948C243.549 67.756 244.081 67.484 244.617 67.132L245.781 68.74C245.189 69.22 244.497 69.604 243.705 69.892C242.913 70.18 242.065 70.324 241.161 70.324C239.849 70.324 238.737 70.044 237.825 69.484C236.921 68.924 236.233 68.144 235.761 67.144C235.289 66.144 235.053 64.988 235.053 63.676C235.053 62.404 235.285 61.268 235.749 60.268C236.213 59.26 236.877 58.464 237.741 57.88C238.605 57.288 239.637 56.992 240.837 56.992C241.965 56.992 242.933 57.248 243.741 57.76C244.557 58.272 245.185 59 245.625 59.944C246.073 60.88 246.297 62.008 246.297 63.328C246.297 63.544 246.289 63.76 246.273 63.976C246.265 64.184 246.253 64.368 246.237 64.528H237.837ZM240.861 58.984C240.021 58.984 239.325 59.284 238.773 59.884C238.229 60.484 237.913 61.42 237.825 62.692H243.693C243.669 61.5 243.413 60.584 242.925 59.944C242.445 59.304 241.757 58.984 240.861 58.984ZM254.603 68.26C255.443 68.26 256.111 68.112 256.607 67.816C257.103 67.512 257.351 67.096 257.351 66.568C257.351 66.224 257.279 65.932 257.135 65.692C256.991 65.444 256.703 65.22 256.271 65.02C255.839 64.812 255.183 64.596 254.303 64.372C253.471 64.156 252.739 63.9 252.107 63.604C251.483 63.308 250.999 62.924 250.655 62.452C250.311 61.98 250.139 61.372 250.139 60.628C250.139 59.9 250.343 59.264 250.751 58.72C251.159 58.176 251.743 57.752 252.503 57.448C253.271 57.144 254.171 56.992 255.203 56.992C256.267 56.992 257.195 57.132 257.987 57.412C258.779 57.692 259.455 58.04 260.015 58.456L258.887 60.148C258.391 59.82 257.847 59.552 257.255 59.344C256.671 59.136 256.011 59.032 255.275 59.032C254.419 59.032 253.803 59.16 253.427 59.416C253.059 59.672 252.875 60.012 252.875 60.436C252.875 60.748 252.967 61.012 253.151 61.228C253.343 61.436 253.671 61.632 254.135 61.816C254.599 61.992 255.255 62.2 256.103 62.44C256.927 62.664 257.643 62.928 258.251 63.232C258.867 63.536 259.343 63.94 259.679 64.444C260.023 64.94 260.195 65.588 260.195 66.388C260.195 67.3 259.931 68.048 259.403 68.632C258.883 69.208 258.195 69.636 257.339 69.916C256.491 70.188 255.579 70.324 254.603 70.324C253.427 70.324 252.411 70.156 251.555 69.82C250.699 69.476 249.979 69.048 249.395 68.536L250.823 66.904C251.319 67.304 251.887 67.632 252.527 67.888C253.167 68.136 253.859 68.26 254.603 68.26ZM268.994 68.26C269.834 68.26 270.502 68.112 270.998 67.816C271.494 67.512 271.742 67.096 271.742 66.568C271.742 66.224 271.67 65.932 271.526 65.692C271.382 65.444 271.094 65.22 270.662 65.02C270.23 64.812 269.574 64.596 268.694 64.372C267.862 64.156 267.13 63.9 266.498 63.604C265.874 63.308 265.39 62.924 265.046 62.452C264.702 61.98 264.53 61.372 264.53 60.628C264.53 59.9 264.734 59.264 265.142 58.72C265.55 58.176 266.134 57.752 266.894 57.448C267.662 57.144 268.562 56.992 269.594 56.992C270.658 56.992 271.586 57.132 272.378 57.412C273.17 57.692 273.846 58.04 274.406 58.456L273.278 60.148C272.782 59.82 272.238 59.552 271.646 59.344C271.062 59.136 270.402 59.032 269.666 59.032C268.81 59.032 268.194 59.16 267.818 59.416C267.45 59.672 267.266 60.012 267.266 60.436C267.266 60.748 267.358 61.012 267.542 61.228C267.734 61.436 268.062 61.632 268.526 61.816C268.99 61.992 269.646 62.2 270.494 62.44C271.318 62.664 272.034 62.928 272.642 63.232C273.258 63.536 273.734 63.94 274.07 64.444C274.414 64.94 274.586 65.588 274.586 66.388C274.586 67.3 274.322 68.048 273.794 68.632C273.274 69.208 272.586 69.636 271.73 69.916C270.882 70.188 269.97 70.324 268.994 70.324C267.818 70.324 266.802 70.156 265.946 69.82C265.09 69.476 264.37 69.048 263.786 68.536L265.214 66.904C265.71 67.304 266.278 67.632 266.918 67.888C267.558 68.136 268.25 68.26 268.994 68.26ZM303.883 53.44L304.819 70H302.275L301.879 61.936C301.855 61.328 301.835 60.74 301.819 60.172C301.811 59.604 301.807 59.06 301.807 58.54C301.807 58.02 301.811 57.54 301.819 57.1C301.835 56.652 301.851 56.248 301.867 55.888L299.431 67.084H297.007L294.391 55.888C294.415 56.232 294.435 56.636 294.451 57.1C294.467 57.556 294.479 58.048 294.487 58.576C294.495 59.104 294.495 59.656 294.487 60.232C294.487 60.808 294.479 61.384 294.463 61.96L294.139 70H291.643L292.579 53.44H295.915L298.279 64.54L300.535 53.44H303.883ZM310.918 55.552V60.532H316.918V62.644H310.918V67.888H318.226V70H308.134V53.44H318.094L317.782 55.552H310.918ZM332.929 58.228C332.929 59.044 332.761 59.756 332.424 60.364C332.096 60.964 331.645 61.464 331.069 61.864C330.501 62.264 329.865 62.572 329.161 62.788L333.853 70H330.613L326.449 63.184H324.637V70H321.853V53.44H326.473C328.601 53.44 330.209 53.84 331.297 54.64C332.385 55.432 332.929 56.628 332.929 58.228ZM330.013 58.228C330.013 57.268 329.733 56.576 329.173 56.152C328.621 55.72 327.773 55.504 326.629 55.504H324.637V61.144H326.689C327.753 61.144 328.573 60.92 329.149 60.472C329.725 60.016 330.013 59.268 330.013 58.228ZM343.263 70L337.995 55.912C338.019 56.16 338.051 56.512 338.091 56.968C338.139 57.424 338.183 57.952 338.223 58.552C338.271 59.152 338.311 59.788 338.343 60.46C338.375 61.132 338.391 61.804 338.391 62.476V70H335.919V53.44H339.531L344.811 67.54C344.771 67.204 344.719 66.712 344.655 66.064C344.599 65.408 344.543 64.648 344.487 63.784C344.439 62.912 344.415 61.98 344.415 60.988V53.44H346.887V70H343.263ZM369.728 68.26C370.568 68.26 371.236 68.112 371.732 67.816C372.228 67.512 372.476 67.096 372.476 66.568C372.476 66.224 372.404 65.932 372.26 65.692C372.116 65.444 371.828 65.22 371.396 65.02C370.964 64.812 370.308 64.596 369.428 64.372C368.596 64.156 367.864 63.9 367.232 63.604C366.608 63.308 366.124 62.924 365.78 62.452C365.436 61.98 365.264 61.372 365.264 60.628C365.264 59.9 365.468 59.264 365.876 58.72C366.284 58.176 366.868 57.752 367.628 57.448C368.396 57.144 369.296 56.992 370.328 56.992C371.392 56.992 372.32 57.132 373.112 57.412C373.904 57.692 374.58 58.04 375.14 58.456L374.012 60.148C373.516 59.82 372.972 59.552 372.38 59.344C371.796 59.136 371.136 59.032 370.4 59.032C369.544 59.032 368.928 59.16 368.552 59.416C368.184 59.672 368 60.012 368 60.436C368 60.748 368.092 61.012 368.276 61.228C368.468 61.436 368.796 61.632 369.26 61.816C369.724 61.992 370.38 62.2 371.228 62.44C372.052 62.664 372.768 62.928 373.376 63.232C373.992 63.536 374.468 63.94 374.804 64.444C375.148 64.94 375.32 65.588 375.32 66.388C375.32 67.3 375.056 68.048 374.528 68.632C374.008 69.208 373.32 69.636 372.464 69.916C371.616 70.188 370.704 70.324 369.728 70.324C368.552 70.324 367.536 70.156 366.68 69.82C365.824 69.476 365.104 69.048 364.52 68.536L365.948 66.904C366.444 67.304 367.012 67.632 367.652 67.888C368.292 68.136 368.984 68.26 369.728 68.26ZM390.095 69.328C389.631 69.624 389.075 69.864 388.427 70.048C387.779 70.232 387.103 70.324 386.399 70.324C384.927 70.324 383.807 69.944 383.039 69.184C382.279 68.416 381.899 67.408 381.899 66.16V59.284H379.079V57.328H381.899V54.496L384.587 54.172V57.328H388.859L388.559 59.284H384.587V66.136C384.587 66.816 384.755 67.324 385.091 67.66C385.435 67.988 385.995 68.152 386.771 68.152C387.235 68.152 387.663 68.096 388.055 67.984C388.447 67.872 388.803 67.728 389.123 67.552L390.095 69.328ZM403.586 66.892C403.586 67.388 403.662 67.752 403.814 67.984C403.966 68.208 404.21 68.376 404.546 68.488L403.946 70.312C403.322 70.24 402.786 70.068 402.338 69.796C401.89 69.524 401.55 69.112 401.318 68.56C400.854 69.144 400.266 69.584 399.554 69.88C398.842 70.176 398.082 70.324 397.274 70.324C395.994 70.324 394.978 69.964 394.226 69.244C393.482 68.516 393.11 67.564 393.11 66.388C393.11 65.052 393.63 64.024 394.67 63.304C395.71 62.584 397.198 62.224 399.134 62.224H400.946V61.396C400.946 60.58 400.698 59.992 400.202 59.632C399.714 59.272 399.022 59.092 398.126 59.092C397.71 59.092 397.206 59.148 396.614 59.26C396.022 59.364 395.402 59.528 394.754 59.752L394.094 57.856C394.886 57.56 395.662 57.344 396.422 57.208C397.182 57.064 397.886 56.992 398.534 56.992C400.23 56.992 401.494 57.368 402.326 58.12C403.166 58.872 403.586 59.912 403.586 61.24V66.892ZM398.09 68.344C398.634 68.344 399.166 68.2 399.686 67.912C400.206 67.624 400.626 67.22 400.946 66.7V63.904H399.458C398.194 63.904 397.29 64.116 396.746 64.54C396.202 64.956 395.93 65.532 395.93 66.268C395.93 66.94 396.11 67.456 396.47 67.816C396.838 68.168 397.378 68.344 398.09 68.344ZM414.4 68.116C414.992 68.116 415.544 68.016 416.056 67.816C416.568 67.608 417.056 67.34 417.52 67.012L418.768 68.74C418.216 69.212 417.544 69.596 416.752 69.892C415.968 70.18 415.156 70.324 414.316 70.324C413.02 70.324 411.912 70.052 410.992 69.508C410.072 68.956 409.368 68.184 408.88 67.192C408.392 66.2 408.148 65.044 408.148 63.724C408.148 62.436 408.392 61.288 408.88 60.28C409.376 59.264 410.088 58.464 411.016 57.88C411.944 57.288 413.06 56.992 414.364 56.992C415.228 56.992 416.024 57.12 416.752 57.376C417.48 57.632 418.148 58.012 418.756 58.516L417.52 60.208C417.024 59.864 416.516 59.604 415.996 59.428C415.484 59.244 414.956 59.152 414.412 59.152C413.412 59.152 412.592 59.52 411.952 60.256C411.32 60.992 411.004 62.148 411.004 63.724C411.004 64.78 411.148 65.632 411.436 66.28C411.732 66.92 412.136 67.388 412.648 67.684C413.16 67.972 413.744 68.116 414.4 68.116ZM433.843 57.328L428.719 62.992L434.383 70H431.095L425.647 63.064L430.711 57.328H433.843ZM425.455 51.94V70H422.767V52.24L425.455 51.94ZM456.072 68.26C456.912 68.26 457.58 68.112 458.076 67.816C458.572 67.512 458.82 67.096 458.82 66.568C458.82 66.224 458.748 65.932 458.604 65.692C458.46 65.444 458.172 65.22 457.74 65.02C457.308 64.812 456.652 64.596 455.772 64.372C454.94 64.156 454.208 63.9 453.576 63.604C452.952 63.308 452.468 62.924 452.124 62.452C451.78 61.98 451.608 61.372 451.608 60.628C451.608 59.9 451.812 59.264 452.22 58.72C452.628 58.176 453.212 57.752 453.972 57.448C454.74 57.144 455.64 56.992 456.672 56.992C457.736 56.992 458.664 57.132 459.456 57.412C460.248 57.692 460.924 58.04 461.484 58.456L460.356 60.148C459.86 59.82 459.316 59.552 458.724 59.344C458.14 59.136 457.48 59.032 456.744 59.032C455.888 59.032 455.272 59.16 454.896 59.416C454.528 59.672 454.344 60.012 454.344 60.436C454.344 60.748 454.436 61.012 454.62 61.228C454.812 61.436 455.14 61.632 455.604 61.816C456.068 61.992 456.724 62.2 457.572 62.44C458.396 62.664 459.112 62.928 459.72 63.232C460.336 63.536 460.812 63.94 461.148 64.444C461.492 64.94 461.664 65.588 461.664 66.388C461.664 67.3 461.4 68.048 460.872 68.632C460.352 69.208 459.664 69.636 458.808 69.916C457.96 70.188 457.048 70.324 456.072 70.324C454.896 70.324 453.88 70.156 453.024 69.82C452.168 69.476 451.448 69.048 450.864 68.536L452.292 66.904C452.788 67.304 453.356 67.632 453.996 67.888C454.636 68.136 455.328 68.26 456.072 68.26ZM470.931 56.992C472.171 56.992 473.215 57.268 474.063 57.82C474.911 58.372 475.551 59.144 475.983 60.136C476.423 61.128 476.643 62.296 476.643 63.64C476.643 64.976 476.419 66.148 475.971 67.156C475.531 68.156 474.883 68.936 474.027 69.496C473.179 70.048 472.143 70.324 470.919 70.324C469.695 70.324 468.655 70.056 467.799 69.52C466.951 68.976 466.303 68.204 465.855 67.204C465.415 66.204 465.195 65.024 465.195 63.664C465.195 62.344 465.415 61.184 465.855 60.184C466.303 59.184 466.955 58.404 467.811 57.844C468.667 57.276 469.707 56.992 470.931 56.992ZM470.931 59.08C469.963 59.08 469.235 59.452 468.747 60.196C468.259 60.932 468.015 62.088 468.015 63.664C468.015 65.232 468.255 66.388 468.735 67.132C469.223 67.876 469.951 68.248 470.919 68.248C471.887 68.248 472.611 67.876 473.091 67.132C473.579 66.388 473.823 65.224 473.823 63.64C473.823 62.08 473.583 60.932 473.103 60.196C472.623 59.452 471.899 59.08 470.931 59.08ZM485.813 52.24V66.544C485.813 67.128 485.989 67.544 486.341 67.792C486.701 68.032 487.165 68.152 487.733 68.152C488.101 68.152 488.449 68.112 488.777 68.032C489.105 67.952 489.425 67.852 489.737 67.732L490.421 69.604C490.045 69.796 489.581 69.964 489.029 70.108C488.485 70.252 487.861 70.324 487.157 70.324C485.885 70.324 484.893 69.968 484.181 69.256C483.477 68.536 483.125 67.552 483.125 66.304V54.22H479.297V52.24H485.813ZM497.324 57.328V66.184C497.324 66.936 497.472 67.472 497.768 67.792C498.072 68.112 498.528 68.272 499.136 68.272C499.712 68.272 500.268 68.1 500.804 67.756C501.34 67.412 501.764 66.992 502.076 66.496V57.328H504.764V70H502.448L502.28 68.38C501.808 69.012 501.212 69.496 500.492 69.832C499.772 70.16 499.036 70.324 498.284 70.324C497.06 70.324 496.144 69.988 495.536 69.316C494.936 68.636 494.636 67.704 494.636 66.52V57.328H497.324ZM519.611 69.328C519.147 69.624 518.591 69.864 517.943 70.048C517.295 70.232 516.619 70.324 515.915 70.324C514.443 70.324 513.323 69.944 512.555 69.184C511.795 68.416 511.415 67.408 511.415 66.16V59.284H508.595V57.328H511.415V54.496L514.103 54.172V57.328H518.375L518.075 59.284H514.103V66.136C514.103 66.816 514.271 67.324 514.607 67.66C514.951 67.988 515.511 68.152 516.287 68.152C516.751 68.152 517.179 68.096 517.571 67.984C517.963 67.872 518.319 67.728 518.639 67.552L519.611 69.328ZM530.341 57.328V68.032H533.785V70H523.861V68.032H527.653V59.296H523.981V57.328H530.341ZM528.469 51.124C528.997 51.124 529.421 51.284 529.741 51.604C530.069 51.924 530.233 52.324 530.233 52.804C530.233 53.284 530.069 53.688 529.741 54.016C529.421 54.344 528.997 54.508 528.469 54.508C527.957 54.508 527.537 54.344 527.209 54.016C526.881 53.688 526.717 53.284 526.717 52.804C526.717 52.324 526.881 51.924 527.209 51.604C527.537 51.284 527.957 51.124 528.469 51.124ZM542.884 56.992C544.124 56.992 545.168 57.268 546.016 57.82C546.864 58.372 547.504 59.144 547.936 60.136C548.376 61.128 548.596 62.296 548.596 63.64C548.596 64.976 548.372 66.148 547.924 67.156C547.484 68.156 546.836 68.936 545.98 69.496C545.132 70.048 544.096 70.324 542.872 70.324C541.648 70.324 540.608 70.056 539.752 69.52C538.904 68.976 538.256 68.204 537.808 67.204C537.368 66.204 537.148 65.024 537.148 63.664C537.148 62.344 537.368 61.184 537.808 60.184C538.256 59.184 538.908 58.404 539.764 57.844C540.62 57.276 541.66 56.992 542.884 56.992ZM542.884 59.08C541.916 59.08 541.188 59.452 540.7 60.196C540.212 60.932 539.968 62.088 539.968 63.664C539.968 65.232 540.208 66.388 540.688 67.132C541.176 67.876 541.904 68.248 542.872 68.248C543.84 68.248 544.564 67.876 545.044 67.132C545.532 66.388 545.776 65.224 545.776 63.64C545.776 62.08 545.536 60.932 545.056 60.196C544.576 59.452 543.852 59.08 542.884 59.08ZM552.199 70V57.328H554.515L554.719 58.972C555.247 58.324 555.871 57.832 556.591 57.496C557.311 57.16 558.051 56.992 558.811 56.992C559.995 56.992 560.879 57.324 561.463 57.988C562.055 58.644 562.351 59.568 562.351 60.76V70H559.663V62.092C559.663 61.356 559.619 60.764 559.531 60.316C559.443 59.868 559.267 59.544 559.003 59.344C558.747 59.144 558.363 59.044 557.851 59.044C557.443 59.044 557.055 59.132 556.687 59.308C556.319 59.484 555.983 59.716 555.679 60.004C555.375 60.284 555.111 60.584 554.887 60.904V70H552.199ZM571.197 68.26C572.037 68.26 572.705 68.112 573.201 67.816C573.697 67.512 573.945 67.096 573.945 66.568C573.945 66.224 573.873 65.932 573.729 65.692C573.585 65.444 573.297 65.22 572.865 65.02C572.433 64.812 571.777 64.596 570.897 64.372C570.065 64.156 569.333 63.9 568.701 63.604C568.077 63.308 567.593 62.924 567.249 62.452C566.905 61.98 566.733 61.372 566.733 60.628C566.733 59.9 566.937 59.264 567.345 58.72C567.753 58.176 568.337 57.752 569.097 57.448C569.865 57.144 570.765 56.992 571.797 56.992C572.861 56.992 573.789 57.132 574.581 57.412C575.373 57.692 576.049 58.04 576.609 58.456L575.481 60.148C574.985 59.82 574.441 59.552 573.849 59.344C573.265 59.136 572.605 59.032 571.869 59.032C571.013 59.032 570.397 59.16 570.021 59.416C569.653 59.672 569.469 60.012 569.469 60.436C569.469 60.748 569.561 61.012 569.745 61.228C569.937 61.436 570.265 61.632 570.729 61.816C571.193 61.992 571.849 62.2 572.697 62.44C573.521 62.664 574.237 62.928 574.845 63.232C575.461 63.536 575.937 63.94 576.273 64.444C576.617 64.94 576.789 65.588 576.789 66.388C576.789 67.3 576.525 68.048 575.997 68.632C575.477 69.208 574.789 69.636 573.933 69.916C573.085 70.188 572.173 70.324 571.197 70.324C570.021 70.324 569.005 70.156 568.149 69.82C567.293 69.476 566.573 69.048 565.989 68.536L567.417 66.904C567.913 67.304 568.481 67.632 569.121 67.888C569.761 68.136 570.453 68.26 571.197 68.26ZM605.954 69.328C605.49 69.624 604.934 69.864 604.286 70.048C603.638 70.232 602.962 70.324 602.258 70.324C600.786 70.324 599.666 69.944 598.898 69.184C598.138 68.416 597.758 67.408 597.758 66.16V59.284H594.938V57.328H597.758V54.496L600.446 54.172V57.328H604.718L604.418 59.284H600.446V66.136C600.446 66.816 600.614 67.324 600.95 67.66C601.294 67.988 601.854 68.152 602.63 68.152C603.094 68.152 603.522 68.096 603.914 67.984C604.306 67.872 604.662 67.728 604.982 67.552L605.954 69.328ZM614.837 56.992C616.077 56.992 617.121 57.268 617.969 57.82C618.817 58.372 619.457 59.144 619.889 60.136C620.329 61.128 620.549 62.296 620.549 63.64C620.549 64.976 620.325 66.148 619.877 67.156C619.437 68.156 618.789 68.936 617.933 69.496C617.085 70.048 616.049 70.324 614.825 70.324C613.601 70.324 612.561 70.056 611.705 69.52C610.857 68.976 610.209 68.204 609.761 67.204C609.321 66.204 609.101 65.024 609.101 63.664C609.101 62.344 609.321 61.184 609.761 60.184C610.209 59.184 610.861 58.404 611.717 57.844C612.573 57.276 613.613 56.992 614.837 56.992ZM614.837 59.08C613.869 59.08 613.141 59.452 612.653 60.196C612.165 60.932 611.921 62.088 611.921 63.664C611.921 65.232 612.161 66.388 612.641 67.132C613.129 67.876 613.857 68.248 614.825 68.248C615.793 68.248 616.517 67.876 616.997 67.132C617.485 66.388 617.729 65.224 617.729 63.64C617.729 62.08 617.489 60.932 617.009 60.196C616.529 59.452 615.805 59.08 614.837 59.08ZM649.126 69.328C648.662 69.624 648.106 69.864 647.458 70.048C646.81 70.232 646.134 70.324 645.43 70.324C643.958 70.324 642.838 69.944 642.07 69.184C641.31 68.416 640.93 67.408 640.93 66.16V59.284H638.11V57.328H640.93V54.496L643.618 54.172V57.328H647.89L647.59 59.284H643.618V66.136C643.618 66.816 643.786 67.324 644.122 67.66C644.466 67.988 645.026 68.152 645.802 68.152C646.266 68.152 646.694 68.096 647.086 67.984C647.478 67.872 647.834 67.728 648.154 67.552L649.126 69.328ZM653.053 70V68.08H654.913V59.236H653.053V57.328H656.965L657.457 60.268C657.929 59.204 658.513 58.396 659.209 57.844C659.913 57.284 660.817 57.004 661.921 57.004C662.297 57.004 662.633 57.036 662.929 57.1C663.233 57.156 663.533 57.232 663.829 57.328L663.025 59.632C662.769 59.56 662.529 59.508 662.305 59.476C662.081 59.436 661.833 59.416 661.561 59.416C660.641 59.416 659.845 59.76 659.173 60.448C658.509 61.136 657.985 62.112 657.601 63.376V68.08H660.157V70H653.053ZM661.453 61.996V58.876L661.789 57.328H663.829L663.373 61.996H661.453ZM677.008 66.892C677.008 67.388 677.084 67.752 677.236 67.984C677.388 68.208 677.632 68.376 677.968 68.488L677.368 70.312C676.744 70.24 676.208 70.068 675.76 69.796C675.312 69.524 674.972 69.112 674.74 68.56C674.276 69.144 673.688 69.584 672.976 69.88C672.264 70.176 671.504 70.324 670.696 70.324C669.416 70.324 668.4 69.964 667.648 69.244C666.904 68.516 666.532 67.564 666.532 66.388C666.532 65.052 667.052 64.024 668.092 63.304C669.132 62.584 670.62 62.224 672.556 62.224H674.368V61.396C674.368 60.58 674.12 59.992 673.624 59.632C673.136 59.272 672.444 59.092 671.548 59.092C671.132 59.092 670.628 59.148 670.036 59.26C669.444 59.364 668.824 59.528 668.176 59.752L667.516 57.856C668.308 57.56 669.084 57.344 669.844 57.208C670.604 57.064 671.308 56.992 671.956 56.992C673.652 56.992 674.916 57.368 675.748 58.12C676.588 58.872 677.008 59.912 677.008 61.24V66.892ZM671.512 68.344C672.056 68.344 672.588 68.2 673.108 67.912C673.628 67.624 674.048 67.22 674.368 66.7V63.904H672.88C671.616 63.904 670.712 64.116 670.168 64.54C669.624 64.956 669.352 65.532 669.352 66.268C669.352 66.94 669.532 67.456 669.892 67.816C670.26 68.168 670.8 68.344 671.512 68.344ZM681.714 70V57.328H684.03L684.234 58.972C684.762 58.324 685.386 57.832 686.106 57.496C686.826 57.16 687.566 56.992 688.326 56.992C689.51 56.992 690.394 57.324 690.978 57.988C691.57 58.644 691.866 59.568 691.866 60.76V70H689.178V62.092C689.178 61.356 689.134 60.764 689.046 60.316C688.958 59.868 688.782 59.544 688.518 59.344C688.262 59.144 687.878 59.044 687.366 59.044C686.958 59.044 686.57 59.132 686.202 59.308C685.834 59.484 685.498 59.716 685.194 60.004C684.89 60.284 684.626 60.584 684.402 60.904V70H681.714ZM700.713 68.26C701.553 68.26 702.221 68.112 702.717 67.816C703.213 67.512 703.461 67.096 703.461 66.568C703.461 66.224 703.389 65.932 703.245 65.692C703.101 65.444 702.813 65.22 702.381 65.02C701.949 64.812 701.293 64.596 700.413 64.372C699.581 64.156 698.849 63.9 698.217 63.604C697.593 63.308 697.109 62.924 696.765 62.452C696.421 61.98 696.249 61.372 696.249 60.628C696.249 59.9 696.453 59.264 696.861 58.72C697.269 58.176 697.853 57.752 698.613 57.448C699.381 57.144 700.281 56.992 701.313 56.992C702.377 56.992 703.305 57.132 704.097 57.412C704.889 57.692 705.565 58.04 706.125 58.456L704.997 60.148C704.501 59.82 703.957 59.552 703.365 59.344C702.781 59.136 702.121 59.032 701.385 59.032C700.529 59.032 699.913 59.16 699.537 59.416C699.169 59.672 698.985 60.012 698.985 60.436C698.985 60.748 699.077 61.012 699.261 61.228C699.453 61.436 699.781 61.632 700.245 61.816C700.709 61.992 701.365 62.2 702.213 62.44C703.037 62.664 703.753 62.928 704.361 63.232C704.977 63.536 705.453 63.94 705.789 64.444C706.133 64.94 706.305 65.588 706.305 66.388C706.305 67.3 706.041 68.048 705.513 68.632C704.993 69.208 704.305 69.636 703.449 69.916C702.601 70.188 701.689 70.324 700.713 70.324C699.537 70.324 698.521 70.156 697.665 69.82C696.809 69.476 696.089 69.048 695.505 68.536L696.933 66.904C697.429 67.304 697.997 67.632 698.637 67.888C699.277 68.136 699.969 68.26 700.713 68.26ZM718.199 51.94C718.975 51.94 719.667 52.008 720.275 52.144C720.891 52.272 721.459 52.448 721.979 52.672L721.187 54.532C720.763 54.356 720.319 54.228 719.855 54.148C719.399 54.068 718.935 54.028 718.463 54.028C717.631 54.028 717.015 54.188 716.615 54.508C716.215 54.82 716.015 55.316 716.015 55.996V58.24H720.251L719.963 60.22H716.015V70H713.339V60.22H710.459V58.24H713.339V55.972C713.339 55.172 713.539 54.472 713.939 53.872C714.347 53.264 714.915 52.792 715.643 52.456C716.371 52.112 717.223 51.94 718.199 51.94ZM729.962 56.992C731.202 56.992 732.246 57.268 733.094 57.82C733.942 58.372 734.582 59.144 735.014 60.136C735.454 61.128 735.674 62.296 735.674 63.64C735.674 64.976 735.45 66.148 735.002 67.156C734.562 68.156 733.914 68.936 733.058 69.496C732.21 70.048 731.174 70.324 729.95 70.324C728.726 70.324 727.686 70.056 726.83 69.52C725.982 68.976 725.334 68.204 724.886 67.204C724.446 66.204 724.226 65.024 724.226 63.664C724.226 62.344 724.446 61.184 724.886 60.184C725.334 59.184 725.986 58.404 726.842 57.844C727.698 57.276 728.738 56.992 729.962 56.992ZM729.962 59.08C728.994 59.08 728.266 59.452 727.778 60.196C727.29 60.932 727.046 62.088 727.046 63.664C727.046 65.232 727.286 66.388 727.766 67.132C728.254 67.876 728.982 68.248 729.95 68.248C730.918 68.248 731.642 67.876 732.122 67.132C732.61 66.388 732.854 65.224 732.854 63.64C732.854 62.08 732.614 60.932 732.134 60.196C731.654 59.452 730.93 59.08 729.962 59.08ZM739.397 70V68.08H741.257V59.236H739.397V57.328H743.309L743.801 60.268C744.273 59.204 744.857 58.396 745.553 57.844C746.257 57.284 747.161 57.004 748.265 57.004C748.641 57.004 748.977 57.036 749.273 57.1C749.577 57.156 749.877 57.232 750.173 57.328L749.369 59.632C749.113 59.56 748.873 59.508 748.649 59.476C748.425 59.436 748.177 59.416 747.905 59.416C746.985 59.416 746.189 59.76 745.517 60.448C744.853 61.136 744.329 62.112 743.945 63.376V68.08H746.501V70H739.397ZM747.797 61.996V58.876L748.133 57.328H750.173L749.717 61.996H747.797ZM762.403 56.992C762.883 56.992 763.315 57.096 763.699 57.304C764.083 57.512 764.383 57.876 764.599 58.396C764.823 58.916 764.935 59.644 764.935 60.58V70H762.547V60.952C762.547 60.288 762.499 59.812 762.403 59.524C762.315 59.236 762.079 59.092 761.695 59.092C761.391 59.092 761.083 59.188 760.771 59.38C760.459 59.564 760.143 59.884 759.823 60.34V70H757.651V60.952C757.651 60.288 757.603 59.812 757.507 59.524C757.419 59.236 757.183 59.092 756.799 59.092C756.487 59.092 756.175 59.188 755.863 59.38C755.559 59.564 755.247 59.884 754.927 60.34V70H752.527V57.328H754.555L754.735 58.696C755.095 58.192 755.487 57.784 755.911 57.472C756.335 57.152 756.847 56.992 757.447 56.992C757.927 56.992 758.363 57.112 758.755 57.352C759.147 57.592 759.435 58.012 759.619 58.612C759.971 58.132 760.371 57.744 760.819 57.448C761.267 57.144 761.795 56.992 762.403 56.992ZM793.536 57.328L789.169 70.048C788.841 71.008 788.421 71.852 787.909 72.58C787.397 73.316 786.741 73.908 785.941 74.356C785.141 74.804 784.149 75.08 782.965 75.184L782.617 73.168C783.473 73.032 784.153 72.832 784.657 72.568C785.169 72.312 785.573 71.972 785.869 71.548C786.173 71.124 786.441 70.608 786.673 70H785.761L781.489 57.328H784.345L787.537 68.128L790.777 57.328H793.536ZM801.915 56.992C803.155 56.992 804.199 57.268 805.047 57.82C805.895 58.372 806.535 59.144 806.967 60.136C807.407 61.128 807.627 62.296 807.627 63.64C807.627 64.976 807.403 66.148 806.955 67.156C806.515 68.156 805.867 68.936 805.011 69.496C804.163 70.048 803.127 70.324 801.903 70.324C800.679 70.324 799.639 70.056 798.783 69.52C797.935 68.976 797.287 68.204 796.839 67.204C796.399 66.204 796.179 65.024 796.179 63.664C796.179 62.344 796.399 61.184 796.839 60.184C797.287 59.184 797.939 58.404 798.795 57.844C799.651 57.276 800.691 56.992 801.915 56.992ZM801.915 59.08C800.947 59.08 800.219 59.452 799.731 60.196C799.243 60.932 798.999 62.088 798.999 63.664C798.999 65.232 799.239 66.388 799.719 67.132C800.207 67.876 800.935 68.248 801.903 68.248C802.871 68.248 803.595 67.876 804.075 67.132C804.563 66.388 804.807 65.224 804.807 63.64C804.807 62.08 804.567 60.932 804.087 60.196C803.607 59.452 802.883 59.08 801.915 59.08ZM813.918 57.328V66.184C813.918 66.936 814.066 67.472 814.362 67.792C814.666 68.112 815.122 68.272 815.73 68.272C816.306 68.272 816.862 68.1 817.398 67.756C817.934 67.412 818.358 66.992 818.67 66.496V57.328H821.358V70H819.042L818.874 68.38C818.402 69.012 817.806 69.496 817.086 69.832C816.366 70.16 815.63 70.324 814.878 70.324C813.654 70.324 812.738 69.988 812.13 69.316C811.53 68.636 811.23 67.704 811.23 66.52V57.328H813.918ZM825.74 70V68.08H827.6V59.236H825.74V57.328H829.652L830.144 60.268C830.616 59.204 831.2 58.396 831.896 57.844C832.6 57.284 833.504 57.004 834.608 57.004C834.984 57.004 835.32 57.036 835.616 57.1C835.92 57.156 836.22 57.232 836.516 57.328L835.712 59.632C835.456 59.56 835.216 59.508 834.992 59.476C834.768 59.436 834.52 59.416 834.248 59.416C833.328 59.416 832.532 59.76 831.86 60.448C831.196 61.136 830.672 62.112 830.288 63.376V68.08H832.844V70H825.74ZM834.14 61.996V58.876L834.476 57.328H836.516L836.06 61.996H834.14ZM41.06 88.328V99.032H44.504V101H34.58V99.032H38.372V90.296H34.7V88.328H41.06ZM39.188 82.124C39.716 82.124 40.14 82.284 40.46 82.604C40.788 82.924 40.952 83.324 40.952 83.804C40.952 84.284 40.788 84.688 40.46 85.016C40.14 85.344 39.716 85.508 39.188 85.508C38.676 85.508 38.256 85.344 37.928 85.016C37.6 84.688 37.436 84.284 37.436 83.804C37.436 83.324 37.6 82.924 37.928 82.604C38.256 82.284 38.676 82.124 39.188 82.124ZM55.9666 82.94L58.6546 83.24V101H56.2906L56.0986 99.44C55.6666 100.04 55.1506 100.504 54.5506 100.832C53.9506 101.16 53.2786 101.324 52.5346 101.324C51.4466 101.324 50.5506 101.048 49.8466 100.496C49.1426 99.936 48.6186 99.156 48.2746 98.156C47.9386 97.148 47.7706 95.984 47.7706 94.664C47.7706 93.376 47.9706 92.232 48.3706 91.232C48.7706 90.224 49.3426 89.432 50.0866 88.856C50.8306 88.28 51.7266 87.992 52.7746 87.992C53.4386 87.992 54.0346 88.112 54.5626 88.352C55.0906 88.584 55.5586 88.924 55.9666 89.372V82.94ZM53.4826 90.056C52.5786 90.056 51.8746 90.432 51.3706 91.184C50.8666 91.928 50.6146 93.088 50.6146 94.664C50.6146 95.744 50.7186 96.624 50.9266 97.304C51.1346 97.976 51.4346 98.472 51.8266 98.792C52.2186 99.104 52.6906 99.26 53.2426 99.26C53.8506 99.26 54.3786 99.084 54.8266 98.732C55.2746 98.38 55.6546 97.956 55.9666 97.46V91.46C55.6546 91.012 55.2906 90.668 54.8746 90.428C54.4586 90.18 53.9946 90.056 53.4826 90.056ZM65.1493 95.528C65.2053 96.392 65.3893 97.1 65.7013 97.652C66.0133 98.196 66.4213 98.596 66.9253 98.852C67.4373 99.108 67.9973 99.236 68.6053 99.236C69.2293 99.236 69.8053 99.14 70.3333 98.948C70.8613 98.756 71.3933 98.484 71.9293 98.132L73.0933 99.74C72.5013 100.22 71.8093 100.604 71.0173 100.892C70.2253 101.18 69.3773 101.324 68.4733 101.324C67.1613 101.324 66.0493 101.044 65.1373 100.484C64.2333 99.924 63.5453 99.144 63.0733 98.144C62.6013 97.144 62.3652 95.988 62.3652 94.676C62.3652 93.404 62.5973 92.268 63.0613 91.268C63.5253 90.26 64.1893 89.464 65.0533 88.88C65.9173 88.288 66.9493 87.992 68.1493 87.992C69.2773 87.992 70.2453 88.248 71.0533 88.76C71.8693 89.272 72.4973 90 72.9373 90.944C73.3853 91.88 73.6093 93.008 73.6093 94.328C73.6093 94.544 73.6013 94.76 73.5853 94.976C73.5773 95.184 73.5653 95.368 73.5493 95.528H65.1493ZM68.1733 89.984C67.3333 89.984 66.6373 90.284 66.0853 90.884C65.5413 91.484 65.2253 92.42 65.1373 93.692H71.0053C70.9813 92.5 70.7253 91.584 70.2373 90.944C69.7573 90.304 69.0693 89.984 68.1733 89.984ZM86.9919 97.892C86.9919 98.388 87.0679 98.752 87.2199 98.984C87.3719 99.208 87.6159 99.376 87.9519 99.488L87.3519 101.312C86.7279 101.24 86.1919 101.068 85.7439 100.796C85.2959 100.524 84.9559 100.112 84.7239 99.56C84.2599 100.144 83.6719 100.584 82.9599 100.88C82.2479 101.176 81.4879 101.324 80.6799 101.324C79.3999 101.324 78.3839 100.964 77.6319 100.244C76.8879 99.516 76.5159 98.564 76.5159 97.388C76.5159 96.052 77.0359 95.024 78.0759 94.304C79.1159 93.584 80.6039 93.224 82.5399 93.224H84.3519V92.396C84.3519 91.58 84.1039 90.992 83.6079 90.632C83.1199 90.272 82.4279 90.092 81.5319 90.092C81.1159 90.092 80.6119 90.148 80.0199 90.26C79.4279 90.364 78.8079 90.528 78.1599 90.752L77.4999 88.856C78.2919 88.56 79.0679 88.344 79.8279 88.208C80.5879 88.064 81.2919 87.992 81.9399 87.992C83.6359 87.992 84.8999 88.368 85.7319 89.12C86.5719 89.872 86.9919 90.912 86.9919 92.24V97.892ZM81.4959 99.344C82.0399 99.344 82.5719 99.2 83.0919 98.912C83.6119 98.624 84.0319 98.22 84.3519 97.7V94.904H82.8639C81.5999 94.904 80.6959 95.116 80.1519 95.54C79.6079 95.956 79.3359 96.532 79.3359 97.268C79.3359 97.94 79.5159 98.456 79.8759 98.816C80.2439 99.168 80.7839 99.344 81.4959 99.344ZM96.3065 99.26C97.1465 99.26 97.8145 99.112 98.3105 98.816C98.8065 98.512 99.0545 98.096 99.0545 97.568C99.0545 97.224 98.9825 96.932 98.8385 96.692C98.6945 96.444 98.4065 96.22 97.9745 96.02C97.5425 95.812 96.8865 95.596 96.0065 95.372C95.1745 95.156 94.4425 94.9 93.8105 94.604C93.1865 94.308 92.7025 93.924 92.3585 93.452C92.0145 92.98 91.8425 92.372 91.8425 91.628C91.8425 90.9 92.0465 90.264 92.4545 89.72C92.8625 89.176 93.4465 88.752 94.2065 88.448C94.9745 88.144 95.8745 87.992 96.9065 87.992C97.9705 87.992 98.8985 88.132 99.6905 88.412C100.483 88.692 101.159 89.04 101.719 89.456L100.591 91.148C100.095 90.82 99.5505 90.552 98.9585 90.344C98.3745 90.136 97.7145 90.032 96.9785 90.032C96.1225 90.032 95.5065 90.16 95.1305 90.416C94.7625 90.672 94.5785 91.012 94.5785 91.436C94.5785 91.748 94.6705 92.012 94.8545 92.228C95.0465 92.436 95.3745 92.632 95.8385 92.816C96.3025 92.992 96.9585 93.2 97.8065 93.44C98.6305 93.664 99.3465 93.928 99.9545 94.232C100.571 94.536 101.047 94.94 101.383 95.444C101.727 95.94 101.898 96.588 101.898 97.388C101.898 98.3 101.635 99.048 101.107 99.632C100.587 100.208 99.8985 100.636 99.0425 100.916C98.1945 101.188 97.2825 101.324 96.3065 101.324C95.1305 101.324 94.1145 101.156 93.2585 100.82C92.4025 100.476 91.6825 100.048 91.0985 99.536L92.5265 97.904C93.0225 98.304 93.5905 98.632 94.2305 98.888C94.8705 99.136 95.5625 99.26 96.3065 99.26ZM127.404 88.328V99.032H130.848V101H120.924V99.032H124.716V90.296H121.044V88.328H127.404ZM125.532 82.124C126.06 82.124 126.484 82.284 126.804 82.604C127.132 82.924 127.296 83.324 127.296 83.804C127.296 84.284 127.132 84.688 126.804 85.016C126.484 85.344 126.06 85.508 125.532 85.508C125.02 85.508 124.6 85.344 124.272 85.016C123.944 84.688 123.78 84.284 123.78 83.804C123.78 83.324 123.944 82.924 124.272 82.604C124.6 82.284 125.02 82.124 125.532 82.124ZM134.87 101V88.328H137.186L137.39 89.972C137.918 89.324 138.542 88.832 139.262 88.496C139.982 88.16 140.722 87.992 141.482 87.992C142.666 87.992 143.55 88.324 144.134 88.988C144.726 89.644 145.022 90.568 145.022 91.76V101H142.334V93.092C142.334 92.356 142.29 91.764 142.202 91.316C142.114 90.868 141.938 90.544 141.674 90.344C141.418 90.144 141.034 90.044 140.522 90.044C140.114 90.044 139.726 90.132 139.358 90.308C138.99 90.484 138.654 90.716 138.35 91.004C138.046 91.284 137.782 91.584 137.558 91.904V101H134.87ZM159.845 100.328C159.381 100.624 158.825 100.864 158.177 101.048C157.529 101.232 156.853 101.324 156.149 101.324C154.677 101.324 153.557 100.944 152.789 100.184C152.029 99.416 151.649 98.408 151.649 97.16V90.284H148.829V88.328H151.649V85.496L154.337 85.172V88.328H158.609L158.309 90.284H154.337V97.136C154.337 97.816 154.505 98.324 154.841 98.66C155.185 98.988 155.745 99.152 156.521 99.152C156.985 99.152 157.413 99.096 157.805 98.984C158.197 98.872 158.553 98.728 158.873 98.552L159.845 100.328ZM168.728 87.992C169.968 87.992 171.012 88.268 171.86 88.82C172.708 89.372 173.348 90.144 173.78 91.136C174.22 92.128 174.44 93.296 174.44 94.64C174.44 95.976 174.216 97.148 173.768 98.156C173.328 99.156 172.68 99.936 171.824 100.496C170.976 101.048 169.94 101.324 168.716 101.324C167.492 101.324 166.452 101.056 165.596 100.52C164.748 99.976 164.1 99.204 163.652 98.204C163.212 97.204 162.992 96.024 162.992 94.664C162.992 93.344 163.212 92.184 163.652 91.184C164.1 90.184 164.752 89.404 165.608 88.844C166.464 88.276 167.504 87.992 168.728 87.992ZM168.728 90.08C167.76 90.08 167.032 90.452 166.544 91.196C166.056 91.932 165.812 93.088 165.812 94.664C165.812 96.232 166.052 97.388 166.532 98.132C167.02 98.876 167.748 99.248 168.716 99.248C169.684 99.248 170.408 98.876 170.888 98.132C171.376 97.388 171.62 96.224 171.62 94.64C171.62 93.08 171.38 91.932 170.9 91.196C170.42 90.452 169.696 90.08 168.728 90.08ZM198.613 87.992C199.733 87.992 200.629 88.268 201.301 88.82C201.973 89.364 202.461 90.136 202.765 91.136C203.069 92.128 203.221 93.296 203.221 94.64C203.221 95.928 203.037 97.076 202.669 98.084C202.301 99.092 201.753 99.884 201.025 100.46C200.305 101.036 199.409 101.324 198.337 101.324C197.009 101.324 195.937 100.856 195.121 99.92V105.872L192.433 106.172V88.328H194.773L194.941 89.96C195.421 89.304 195.977 88.812 196.609 88.484C197.249 88.156 197.917 87.992 198.613 87.992ZM197.869 90.068C197.269 90.068 196.741 90.248 196.285 90.608C195.829 90.968 195.441 91.392 195.121 91.88V97.808C195.425 98.264 195.785 98.616 196.201 98.864C196.625 99.104 197.101 99.224 197.629 99.224C198.533 99.224 199.221 98.86 199.693 98.132C200.165 97.404 200.401 96.244 200.401 94.652C200.401 93.572 200.305 92.696 200.113 92.024C199.929 91.344 199.649 90.848 199.273 90.536C198.905 90.224 198.437 90.068 197.869 90.068ZM211.9 87.992C213.14 87.992 214.184 88.268 215.032 88.82C215.88 89.372 216.52 90.144 216.952 91.136C217.392 92.128 217.612 93.296 217.612 94.64C217.612 95.976 217.388 97.148 216.94 98.156C216.5 99.156 215.852 99.936 214.996 100.496C214.148 101.048 213.112 101.324 211.888 101.324C210.664 101.324 209.624 101.056 208.768 100.52C207.92 99.976 207.272 99.204 206.824 98.204C206.384 97.204 206.164 96.024 206.164 94.664C206.164 93.344 206.384 92.184 206.824 91.184C207.272 90.184 207.924 89.404 208.78 88.844C209.636 88.276 210.676 87.992 211.9 87.992ZM211.9 90.08C210.932 90.08 210.204 90.452 209.716 91.196C209.228 91.932 208.984 93.088 208.984 94.664C208.984 96.232 209.224 97.388 209.704 98.132C210.192 98.876 210.92 99.248 211.888 99.248C212.856 99.248 213.58 98.876 214.06 98.132C214.548 97.388 214.792 96.224 214.792 94.64C214.792 93.08 214.552 91.932 214.072 91.196C213.592 90.452 212.868 90.08 211.9 90.08ZM231.126 101H227.766L226.338 92L224.802 101H221.514L219.366 88.328H221.958L223.278 99.332L225.042 89.936H227.73L229.374 99.332L230.694 88.328H233.19L231.126 101ZM237.837 95.528C237.893 96.392 238.077 97.1 238.389 97.652C238.701 98.196 239.109 98.596 239.613 98.852C240.125 99.108 240.685 99.236 241.293 99.236C241.917 99.236 242.493 99.14 243.021 98.948C243.549 98.756 244.081 98.484 244.617 98.132L245.781 99.74C245.189 100.22 244.497 100.604 243.705 100.892C242.913 101.18 242.065 101.324 241.161 101.324C239.849 101.324 238.737 101.044 237.825 100.484C236.921 99.924 236.233 99.144 235.761 98.144C235.289 97.144 235.053 95.988 235.053 94.676C235.053 93.404 235.285 92.268 235.749 91.268C236.213 90.26 236.877 89.464 237.741 88.88C238.605 88.288 239.637 87.992 240.837 87.992C241.965 87.992 242.933 88.248 243.741 88.76C244.557 89.272 245.185 90 245.625 90.944C246.073 91.88 246.297 93.008 246.297 94.328C246.297 94.544 246.289 94.76 246.273 94.976C246.265 95.184 246.253 95.368 246.237 95.528H237.837ZM240.861 89.984C240.021 89.984 239.325 90.284 238.773 90.884C238.229 91.484 237.913 92.42 237.825 93.692H243.693C243.669 92.5 243.413 91.584 242.925 90.944C242.445 90.304 241.757 89.984 240.861 89.984ZM250.115 101V99.08H251.975V90.236H250.115V88.328H254.027L254.519 91.268C254.991 90.204 255.575 89.396 256.271 88.844C256.975 88.284 257.879 88.004 258.983 88.004C259.359 88.004 259.695 88.036 259.991 88.1C260.295 88.156 260.595 88.232 260.891 88.328L260.087 90.632C259.831 90.56 259.591 90.508 259.367 90.476C259.143 90.436 258.895 90.416 258.623 90.416C257.703 90.416 256.907 90.76 256.235 91.448C255.571 92.136 255.047 93.112 254.663 94.376V99.08H257.219V101H250.115ZM258.515 92.996V89.876L258.851 88.328H260.891L260.435 92.996H258.515ZM272.09 82.94C272.866 82.94 273.558 83.008 274.166 83.144C274.782 83.272 275.35 83.448 275.87 83.672L275.078 85.532C274.654 85.356 274.21 85.228 273.746 85.148C273.29 85.068 272.826 85.028 272.354 85.028C271.522 85.028 270.906 85.188 270.506 85.508C270.106 85.82 269.906 86.316 269.906 86.996V89.24H274.142L273.854 91.22H269.906V101H267.23V91.22H264.35V89.24H267.23V86.972C267.23 86.172 267.43 85.472 267.83 84.872C268.238 84.264 268.806 83.792 269.534 83.456C270.262 83.112 271.114 82.94 272.09 82.94ZM281.465 88.328V97.184C281.465 97.936 281.613 98.472 281.909 98.792C282.213 99.112 282.669 99.272 283.277 99.272C283.853 99.272 284.409 99.1 284.945 98.756C285.481 98.412 285.905 97.992 286.217 97.496V88.328H288.905V101H286.589L286.421 99.38C285.949 100.012 285.353 100.496 284.633 100.832C283.913 101.16 283.177 101.324 282.425 101.324C281.201 101.324 280.285 100.988 279.677 100.316C279.077 99.636 278.777 98.704 278.777 97.52V88.328H281.465ZM298.735 83.24V97.544C298.735 98.128 298.911 98.544 299.263 98.792C299.623 99.032 300.087 99.152 300.655 99.152C301.023 99.152 301.371 99.112 301.699 99.032C302.027 98.952 302.347 98.852 302.659 98.732L303.343 100.604C302.967 100.796 302.503 100.964 301.951 101.108C301.407 101.252 300.783 101.324 300.079 101.324C298.807 101.324 297.815 100.968 297.103 100.256C296.399 99.536 296.047 98.552 296.047 97.304V85.22H292.219V83.24H298.735ZM331.633 97.892C331.633 98.388 331.709 98.752 331.861 98.984C332.013 99.208 332.257 99.376 332.593 99.488L331.993 101.312C331.369 101.24 330.833 101.068 330.385 100.796C329.937 100.524 329.597 100.112 329.365 99.56C328.901 100.144 328.313 100.584 327.601 100.88C326.889 101.176 326.129 101.324 325.321 101.324C324.041 101.324 323.025 100.964 322.273 100.244C321.529 99.516 321.157 98.564 321.157 97.388C321.157 96.052 321.677 95.024 322.717 94.304C323.757 93.584 325.245 93.224 327.181 93.224H328.993V92.396C328.993 91.58 328.745 90.992 328.249 90.632C327.761 90.272 327.069 90.092 326.173 90.092C325.757 90.092 325.253 90.148 324.661 90.26C324.069 90.364 323.449 90.528 322.801 90.752L322.141 88.856C322.933 88.56 323.709 88.344 324.469 88.208C325.229 88.064 325.933 87.992 326.581 87.992C328.277 87.992 329.541 88.368 330.373 89.12C331.213 89.872 331.633 90.912 331.633 92.24V97.892ZM326.137 99.344C326.681 99.344 327.213 99.2 327.733 98.912C328.253 98.624 328.673 98.22 328.993 97.7V94.904H327.505C326.241 94.904 325.337 95.116 324.793 95.54C324.249 95.956 323.977 96.532 323.977 97.268C323.977 97.94 324.157 98.456 324.517 98.816C324.885 99.168 325.425 99.344 326.137 99.344ZM336.339 101V88.328H338.655L338.859 89.972C339.387 89.324 340.011 88.832 340.731 88.496C341.451 88.16 342.191 87.992 342.951 87.992C344.135 87.992 345.019 88.324 345.603 88.988C346.195 89.644 346.491 90.568 346.491 91.76V101H343.803V93.092C343.803 92.356 343.759 91.764 343.671 91.316C343.583 90.868 343.407 90.544 343.143 90.344C342.887 90.144 342.503 90.044 341.991 90.044C341.583 90.044 341.195 90.132 340.827 90.308C340.459 90.484 340.123 90.716 339.819 91.004C339.515 91.284 339.251 91.584 339.027 91.904V101H336.339ZM358.17 82.94L360.858 83.24V101H358.494L358.302 99.44C357.87 100.04 357.354 100.504 356.754 100.832C356.154 101.16 355.482 101.324 354.738 101.324C353.65 101.324 352.754 101.048 352.05 100.496C351.346 99.936 350.822 99.156 350.478 98.156C350.142 97.148 349.974 95.984 349.974 94.664C349.974 93.376 350.174 92.232 350.574 91.232C350.974 90.224 351.546 89.432 352.29 88.856C353.034 88.28 353.93 87.992 354.978 87.992C355.642 87.992 356.238 88.112 356.766 88.352C357.294 88.584 357.762 88.924 358.17 89.372V82.94ZM355.686 90.056C354.782 90.056 354.078 90.432 353.574 91.184C353.07 91.928 352.818 93.088 352.818 94.664C352.818 95.744 352.922 96.624 353.13 97.304C353.338 97.976 353.638 98.472 354.03 98.792C354.422 99.104 354.894 99.26 355.446 99.26C356.054 99.26 356.582 99.084 357.03 98.732C357.478 98.38 357.858 97.956 358.17 97.46V91.46C357.858 91.012 357.494 90.668 357.078 90.428C356.662 90.18 356.198 90.056 355.686 90.056ZM384.119 99.26C384.959 99.26 385.627 99.112 386.123 98.816C386.619 98.512 386.867 98.096 386.867 97.568C386.867 97.224 386.795 96.932 386.651 96.692C386.507 96.444 386.219 96.22 385.787 96.02C385.355 95.812 384.699 95.596 383.819 95.372C382.987 95.156 382.255 94.9 381.623 94.604C380.999 94.308 380.515 93.924 380.171 93.452C379.827 92.98 379.655 92.372 379.655 91.628C379.655 90.9 379.859 90.264 380.267 89.72C380.675 89.176 381.259 88.752 382.019 88.448C382.787 88.144 383.687 87.992 384.719 87.992C385.783 87.992 386.711 88.132 387.503 88.412C388.295 88.692 388.971 89.04 389.531 89.456L388.403 91.148C387.907 90.82 387.363 90.552 386.771 90.344C386.187 90.136 385.527 90.032 384.791 90.032C383.935 90.032 383.319 90.16 382.943 90.416C382.575 90.672 382.391 91.012 382.391 91.436C382.391 91.748 382.483 92.012 382.667 92.228C382.859 92.436 383.187 92.632 383.651 92.816C384.115 92.992 384.771 93.2 385.619 93.44C386.443 93.664 387.159 93.928 387.767 94.232C388.383 94.536 388.859 94.94 389.195 95.444C389.539 95.94 389.711 96.588 389.711 97.388C389.711 98.3 389.447 99.048 388.919 99.632C388.399 100.208 387.711 100.636 386.855 100.916C386.007 101.188 385.095 101.324 384.119 101.324C382.943 101.324 381.927 101.156 381.071 100.82C380.215 100.476 379.495 100.048 378.911 99.536L380.339 97.904C380.835 98.304 381.403 98.632 382.043 98.888C382.683 99.136 383.375 99.26 384.119 99.26ZM400.01 99.116C400.602 99.116 401.154 99.016 401.666 98.816C402.178 98.608 402.666 98.34 403.13 98.012L404.378 99.74C403.826 100.212 403.154 100.596 402.362 100.892C401.578 101.18 400.766 101.324 399.926 101.324C398.63 101.324 397.522 101.052 396.602 100.508C395.682 99.956 394.978 99.184 394.49 98.192C394.002 97.2 393.758 96.044 393.758 94.724C393.758 93.436 394.002 92.288 394.49 91.28C394.986 90.264 395.698 89.464 396.626 88.88C397.554 88.288 398.67 87.992 399.974 87.992C400.838 87.992 401.634 88.12 402.362 88.376C403.09 88.632 403.758 89.012 404.366 89.516L403.13 91.208C402.634 90.864 402.126 90.604 401.606 90.428C401.094 90.244 400.566 90.152 400.022 90.152C399.022 90.152 398.202 90.52 397.562 91.256C396.93 91.992 396.614 93.148 396.614 94.724C396.614 95.78 396.758 96.632 397.046 97.28C397.342 97.92 397.746 98.388 398.258 98.684C398.77 98.972 399.354 99.116 400.01 99.116ZM417.976 97.892C417.976 98.388 418.052 98.752 418.204 98.984C418.356 99.208 418.6 99.376 418.936 99.488L418.336 101.312C417.712 101.24 417.176 101.068 416.728 100.796C416.28 100.524 415.94 100.112 415.708 99.56C415.244 100.144 414.656 100.584 413.944 100.88C413.232 101.176 412.472 101.324 411.664 101.324C410.384 101.324 409.368 100.964 408.616 100.244C407.872 99.516 407.5 98.564 407.5 97.388C407.5 96.052 408.02 95.024 409.06 94.304C410.1 93.584 411.588 93.224 413.524 93.224H415.336V92.396C415.336 91.58 415.088 90.992 414.592 90.632C414.104 90.272 413.412 90.092 412.516 90.092C412.1 90.092 411.596 90.148 411.004 90.26C410.412 90.364 409.792 90.528 409.144 90.752L408.484 88.856C409.276 88.56 410.052 88.344 410.812 88.208C411.572 88.064 412.276 87.992 412.924 87.992C414.62 87.992 415.884 88.368 416.716 89.12C417.556 89.872 417.976 90.912 417.976 92.24V97.892ZM412.48 99.344C413.024 99.344 413.556 99.2 414.076 98.912C414.596 98.624 415.016 98.22 415.336 97.7V94.904H413.848C412.584 94.904 411.68 95.116 411.136 95.54C410.592 95.956 410.32 96.532 410.32 97.268C410.32 97.94 410.5 98.456 410.86 98.816C411.228 99.168 411.768 99.344 412.48 99.344ZM428.251 83.24V97.544C428.251 98.128 428.427 98.544 428.779 98.792C429.139 99.032 429.603 99.152 430.171 99.152C430.539 99.152 430.887 99.112 431.215 99.032C431.543 98.952 431.863 98.852 432.175 98.732L432.859 100.604C432.483 100.796 432.019 100.964 431.467 101.108C430.923 101.252 430.299 101.324 429.595 101.324C428.323 101.324 427.331 100.968 426.619 100.256C425.915 99.536 425.563 98.552 425.563 97.304V85.22H421.735V83.24H428.251ZM446.758 97.892C446.758 98.388 446.834 98.752 446.986 98.984C447.138 99.208 447.382 99.376 447.718 99.488L447.118 101.312C446.494 101.24 445.958 101.068 445.51 100.796C445.062 100.524 444.722 100.112 444.49 99.56C444.026 100.144 443.438 100.584 442.726 100.88C442.014 101.176 441.254 101.324 440.446 101.324C439.166 101.324 438.15 100.964 437.398 100.244C436.654 99.516 436.282 98.564 436.282 97.388C436.282 96.052 436.802 95.024 437.842 94.304C438.882 93.584 440.37 93.224 442.306 93.224H444.118V92.396C444.118 91.58 443.87 90.992 443.374 90.632C442.886 90.272 442.194 90.092 441.298 90.092C440.882 90.092 440.378 90.148 439.786 90.26C439.194 90.364 438.574 90.528 437.926 90.752L437.266 88.856C438.058 88.56 438.834 88.344 439.594 88.208C440.354 88.064 441.058 87.992 441.706 87.992C443.402 87.992 444.666 88.368 445.498 89.12C446.338 89.872 446.758 90.912 446.758 92.24V97.892ZM441.262 99.344C441.806 99.344 442.338 99.2 442.858 98.912C443.378 98.624 443.798 98.22 444.118 97.7V94.904H442.63C441.366 94.904 440.462 95.116 439.918 95.54C439.374 95.956 439.102 96.532 439.102 97.268C439.102 97.94 439.282 98.456 439.642 98.816C440.01 99.168 440.55 99.344 441.262 99.344ZM454.152 89.84C454.592 89.264 455.104 88.812 455.688 88.484C456.28 88.156 456.928 87.992 457.632 87.992C458.744 87.992 459.644 88.268 460.332 88.82C461.028 89.364 461.536 90.136 461.856 91.136C462.184 92.128 462.348 93.296 462.348 94.64C462.348 95.928 462.156 97.076 461.772 98.084C461.388 99.092 460.82 99.884 460.068 100.46C459.324 101.036 458.404 101.324 457.308 101.324C455.892 101.324 454.78 100.8 453.972 99.752L453.828 101H451.464V83.24L454.152 82.94V89.84ZM456.636 99.272C457.548 99.272 458.252 98.9 458.748 98.156C459.252 97.412 459.504 96.244 459.504 94.652C459.504 93.572 459.404 92.696 459.204 92.024C459.004 91.344 458.708 90.848 458.316 90.536C457.932 90.224 457.46 90.068 456.9 90.068C456.3 90.068 455.772 90.248 455.316 90.608C454.86 90.968 454.472 91.392 454.152 91.88V97.808C454.448 98.264 454.804 98.624 455.22 98.888C455.644 99.144 456.116 99.272 456.636 99.272ZM471.423 83.24V97.544C471.423 98.128 471.599 98.544 471.951 98.792C472.311 99.032 472.775 99.152 473.343 99.152C473.711 99.152 474.059 99.112 474.387 99.032C474.715 98.952 475.035 98.852 475.347 98.732L476.031 100.604C475.655 100.796 475.191 100.964 474.639 101.108C474.095 101.252 473.471 101.324 472.767 101.324C471.495 101.324 470.503 100.968 469.791 100.256C469.087 99.536 468.735 98.552 468.735 97.304V85.22H464.907V83.24H471.423ZM482.477 95.528C482.533 96.392 482.717 97.1 483.029 97.652C483.341 98.196 483.749 98.596 484.253 98.852C484.765 99.108 485.325 99.236 485.933 99.236C486.557 99.236 487.133 99.14 487.661 98.948C488.189 98.756 488.721 98.484 489.257 98.132L490.421 99.74C489.829 100.22 489.137 100.604 488.345 100.892C487.553 101.18 486.705 101.324 485.801 101.324C484.489 101.324 483.377 101.044 482.465 100.484C481.561 99.924 480.873 99.144 480.401 98.144C479.929 97.144 479.693 95.988 479.693 94.676C479.693 93.404 479.925 92.268 480.389 91.268C480.853 90.26 481.517 89.464 482.381 88.88C483.245 88.288 484.277 87.992 485.477 87.992C486.605 87.992 487.573 88.248 488.381 88.76C489.197 89.272 489.825 90 490.265 90.944C490.713 91.88 490.937 93.008 490.937 94.328C490.937 94.544 490.929 94.76 490.913 94.976C490.905 95.184 490.893 95.368 490.877 95.528H482.477ZM485.501 89.984C484.661 89.984 483.965 90.284 483.413 90.884C482.869 91.484 482.553 92.42 482.465 93.692H488.333C488.309 92.5 488.053 91.584 487.565 90.944C487.085 90.304 486.397 89.984 485.501 89.984ZM518.939 101H515.579L514.151 92L512.615 101H509.327L507.179 88.328H509.771L511.091 99.332L512.855 89.936H515.543L517.187 99.332L518.507 88.328H521.003L518.939 101ZM525.649 95.528C525.705 96.392 525.889 97.1 526.201 97.652C526.513 98.196 526.921 98.596 527.425 98.852C527.937 99.108 528.497 99.236 529.105 99.236C529.729 99.236 530.305 99.14 530.833 98.948C531.361 98.756 531.893 98.484 532.429 98.132L533.593 99.74C533.001 100.22 532.309 100.604 531.517 100.892C530.725 101.18 529.877 101.324 528.973 101.324C527.661 101.324 526.549 101.044 525.637 100.484C524.733 99.924 524.045 99.144 523.573 98.144C523.101 97.144 522.865 95.988 522.865 94.676C522.865 93.404 523.097 92.268 523.561 91.268C524.025 90.26 524.689 89.464 525.553 88.88C526.417 88.288 527.449 87.992 528.649 87.992C529.777 87.992 530.745 88.248 531.553 88.76C532.369 89.272 532.997 90 533.437 90.944C533.885 91.88 534.109 93.008 534.109 94.328C534.109 94.544 534.101 94.76 534.085 94.976C534.077 95.184 534.065 95.368 534.049 95.528H525.649ZM528.673 89.984C527.833 89.984 527.137 90.284 526.585 90.884C526.041 91.484 525.725 92.42 525.637 93.692H531.505C531.481 92.5 531.225 91.584 530.737 90.944C530.257 90.304 529.569 89.984 528.673 89.984ZM540.496 89.84C540.936 89.264 541.448 88.812 542.032 88.484C542.624 88.156 543.272 87.992 543.976 87.992C545.088 87.992 545.988 88.268 546.676 88.82C547.372 89.364 547.88 90.136 548.2 91.136C548.528 92.128 548.692 93.296 548.692 94.64C548.692 95.928 548.5 97.076 548.116 98.084C547.732 99.092 547.164 99.884 546.412 100.46C545.668 101.036 544.748 101.324 543.652 101.324C542.236 101.324 541.124 100.8 540.316 99.752L540.172 101H537.808V83.24L540.496 82.94V89.84ZM542.98 99.272C543.892 99.272 544.596 98.9 545.092 98.156C545.596 97.412 545.848 96.244 545.848 94.652C545.848 93.572 545.748 92.696 545.548 92.024C545.348 91.344 545.052 90.848 544.66 90.536C544.276 90.224 543.804 90.068 543.244 90.068C542.644 90.068 542.116 90.248 541.66 90.608C541.204 90.968 540.816 91.392 540.496 91.88V97.808C540.792 98.264 541.148 98.624 541.564 98.888C541.988 99.144 542.46 99.272 542.98 99.272ZM576.273 97.892C576.273 98.388 576.349 98.752 576.501 98.984C576.653 99.208 576.897 99.376 577.233 99.488L576.633 101.312C576.009 101.24 575.473 101.068 575.025 100.796C574.577 100.524 574.237 100.112 574.005 99.56C573.541 100.144 572.953 100.584 572.241 100.88C571.529 101.176 570.769 101.324 569.961 101.324C568.681 101.324 567.665 100.964 566.913 100.244C566.169 99.516 565.797 98.564 565.797 97.388C565.797 96.052 566.317 95.024 567.357 94.304C568.397 93.584 569.885 93.224 571.821 93.224H573.633V92.396C573.633 91.58 573.385 90.992 572.889 90.632C572.401 90.272 571.709 90.092 570.813 90.092C570.397 90.092 569.893 90.148 569.301 90.26C568.709 90.364 568.089 90.528 567.441 90.752L566.781 88.856C567.573 88.56 568.349 88.344 569.109 88.208C569.869 88.064 570.573 87.992 571.221 87.992C572.917 87.992 574.181 88.368 575.013 89.12C575.853 89.872 576.273 90.912 576.273 92.24V97.892ZM570.777 99.344C571.321 99.344 571.853 99.2 572.373 98.912C572.893 98.624 573.313 98.22 573.633 97.7V94.904H572.145C570.881 94.904 569.977 95.116 569.433 95.54C568.889 95.956 568.617 96.532 568.617 97.268C568.617 97.94 568.797 98.456 569.157 98.816C569.525 99.168 570.065 99.344 570.777 99.344ZM587.16 87.992C588.28 87.992 589.176 88.268 589.848 88.82C590.52 89.364 591.008 90.136 591.312 91.136C591.616 92.128 591.768 93.296 591.768 94.64C591.768 95.928 591.584 97.076 591.216 98.084C590.848 99.092 590.3 99.884 589.572 100.46C588.852 101.036 587.956 101.324 586.884 101.324C585.556 101.324 584.484 100.856 583.668 99.92V105.872L580.98 106.172V88.328H583.32L583.488 89.96C583.968 89.304 584.524 88.812 585.156 88.484C585.796 88.156 586.464 87.992 587.16 87.992ZM586.416 90.068C585.816 90.068 585.288 90.248 584.832 90.608C584.376 90.968 583.988 91.392 583.668 91.88V97.808C583.972 98.264 584.332 98.616 584.748 98.864C585.172 99.104 585.648 99.224 586.176 99.224C587.08 99.224 587.768 98.86 588.24 98.132C588.712 97.404 588.948 96.244 588.948 94.652C588.948 93.572 588.852 92.696 588.66 92.024C588.476 91.344 588.196 90.848 587.82 90.536C587.452 90.224 586.984 90.068 586.416 90.068ZM601.55 87.992C602.67 87.992 603.566 88.268 604.238 88.82C604.91 89.364 605.398 90.136 605.702 91.136C606.006 92.128 606.158 93.296 606.158 94.64C606.158 95.928 605.974 97.076 605.606 98.084C605.238 99.092 604.69 99.884 603.962 100.46C603.242 101.036 602.346 101.324 601.274 101.324C599.946 101.324 598.874 100.856 598.058 99.92V105.872L595.37 106.172V88.328H597.71L597.878 89.96C598.358 89.304 598.914 88.812 599.546 88.484C600.186 88.156 600.854 87.992 601.55 87.992ZM600.806 90.068C600.206 90.068 599.678 90.248 599.222 90.608C598.766 90.968 598.378 91.392 598.058 91.88V97.808C598.362 98.264 598.722 98.616 599.138 98.864C599.562 99.104 600.038 99.224 600.566 99.224C601.47 99.224 602.158 98.86 602.63 98.132C603.102 97.404 603.338 96.244 603.338 94.652C603.338 93.572 603.242 92.696 603.05 92.024C602.866 91.344 602.586 90.848 602.21 90.536C601.842 90.224 601.374 90.068 600.806 90.068ZM615.329 83.24V97.544C615.329 98.128 615.505 98.544 615.857 98.792C616.217 99.032 616.681 99.152 617.249 99.152C617.617 99.152 617.965 99.112 618.293 99.032C618.621 98.952 618.941 98.852 619.253 98.732L619.937 100.604C619.561 100.796 619.097 100.964 618.545 101.108C618.001 101.252 617.377 101.324 616.673 101.324C615.401 101.324 614.409 100.968 613.697 100.256C612.993 99.536 612.641 98.552 612.641 97.304V85.22H608.813V83.24H615.329ZM631.076 88.328V99.032H634.52V101H624.596V99.032H628.388V90.296H624.716V88.328H631.076ZM629.204 82.124C629.732 82.124 630.156 82.284 630.476 82.604C630.804 82.924 630.968 83.324 630.968 83.804C630.968 84.284 630.804 84.688 630.476 85.016C630.156 85.344 629.732 85.508 629.204 85.508C628.692 85.508 628.272 85.344 627.944 85.016C627.616 84.688 627.452 84.284 627.452 83.804C627.452 83.324 627.616 82.924 627.944 82.604C628.272 82.284 628.692 82.124 629.204 82.124ZM644.65 99.116C645.242 99.116 645.794 99.016 646.306 98.816C646.818 98.608 647.306 98.34 647.77 98.012L649.018 99.74C648.466 100.212 647.794 100.596 647.002 100.892C646.218 101.18 645.406 101.324 644.566 101.324C643.27 101.324 642.162 101.052 641.242 100.508C640.322 99.956 639.618 99.184 639.13 98.192C638.642 97.2 638.398 96.044 638.398 94.724C638.398 93.436 638.642 92.288 639.13 91.28C639.626 90.264 640.338 89.464 641.266 88.88C642.194 88.288 643.31 87.992 644.614 87.992C645.478 87.992 646.274 88.12 647.002 88.376C647.73 88.632 648.398 89.012 649.006 89.516L647.77 91.208C647.274 90.864 646.766 90.604 646.246 90.428C645.734 90.244 645.206 90.152 644.662 90.152C643.662 90.152 642.842 90.52 642.202 91.256C641.57 91.992 641.254 93.148 641.254 94.724C641.254 95.78 641.398 96.632 641.686 97.28C641.982 97.92 642.386 98.388 642.898 98.684C643.41 98.972 643.994 99.116 644.65 99.116ZM662.617 97.892C662.617 98.388 662.693 98.752 662.845 98.984C662.997 99.208 663.241 99.376 663.577 99.488L662.977 101.312C662.353 101.24 661.817 101.068 661.369 100.796C660.921 100.524 660.581 100.112 660.349 99.56C659.885 100.144 659.297 100.584 658.585 100.88C657.873 101.176 657.113 101.324 656.305 101.324C655.025 101.324 654.009 100.964 653.257 100.244C652.513 99.516 652.141 98.564 652.141 97.388C652.141 96.052 652.661 95.024 653.701 94.304C654.741 93.584 656.229 93.224 658.165 93.224H659.977V92.396C659.977 91.58 659.729 90.992 659.233 90.632C658.745 90.272 658.053 90.092 657.157 90.092C656.741 90.092 656.237 90.148 655.645 90.26C655.053 90.364 654.433 90.528 653.785 90.752L653.125 88.856C653.917 88.56 654.693 88.344 655.453 88.208C656.213 88.064 656.917 87.992 657.565 87.992C659.261 87.992 660.525 88.368 661.357 89.12C662.197 89.872 662.617 90.912 662.617 92.24V97.892ZM657.121 99.344C657.665 99.344 658.197 99.2 658.717 98.912C659.237 98.624 659.657 98.22 659.977 97.7V94.904H658.489C657.225 94.904 656.321 95.116 655.777 95.54C655.233 95.956 654.961 96.532 654.961 97.268C654.961 97.94 655.141 98.456 655.501 98.816C655.869 99.168 656.409 99.344 657.121 99.344ZM677.908 100.328C677.444 100.624 676.888 100.864 676.24 101.048C675.592 101.232 674.916 101.324 674.212 101.324C672.74 101.324 671.62 100.944 670.852 100.184C670.092 99.416 669.712 98.408 669.712 97.16V90.284H666.892V88.328H669.712V85.496L672.4 85.172V88.328H676.672L676.372 90.284H672.4V97.136C672.4 97.816 672.568 98.324 672.904 98.66C673.248 98.988 673.808 99.152 674.584 99.152C675.048 99.152 675.476 99.096 675.868 98.984C676.26 98.872 676.616 98.728 676.936 98.552L677.908 100.328ZM688.638 88.328V99.032H692.082V101H682.158V99.032H685.95V90.296H682.278V88.328H688.638ZM686.766 82.124C687.294 82.124 687.718 82.284 688.038 82.604C688.366 82.924 688.53 83.324 688.53 83.804C688.53 84.284 688.366 84.688 688.038 85.016C687.718 85.344 687.294 85.508 686.766 85.508C686.254 85.508 685.834 85.344 685.506 85.016C685.178 84.688 685.014 84.284 685.014 83.804C685.014 83.324 685.178 82.924 685.506 82.604C685.834 82.284 686.254 82.124 686.766 82.124ZM701.181 87.992C702.421 87.992 703.465 88.268 704.313 88.82C705.161 89.372 705.801 90.144 706.233 91.136C706.673 92.128 706.893 93.296 706.893 94.64C706.893 95.976 706.669 97.148 706.221 98.156C705.781 99.156 705.133 99.936 704.277 100.496C703.429 101.048 702.393 101.324 701.169 101.324C699.945 101.324 698.905 101.056 698.049 100.52C697.201 99.976 696.553 99.204 696.105 98.204C695.665 97.204 695.445 96.024 695.445 94.664C695.445 93.344 695.665 92.184 696.105 91.184C696.553 90.184 697.205 89.404 698.061 88.844C698.917 88.276 699.957 87.992 701.181 87.992ZM701.181 90.08C700.213 90.08 699.485 90.452 698.997 91.196C698.509 91.932 698.265 93.088 698.265 94.664C698.265 96.232 698.505 97.388 698.985 98.132C699.473 98.876 700.201 99.248 701.169 99.248C702.137 99.248 702.861 98.876 703.341 98.132C703.829 97.388 704.073 96.224 704.073 94.64C704.073 93.08 703.833 91.932 703.353 91.196C702.873 90.452 702.149 90.08 701.181 90.08ZM710.495 101V88.328H712.811L713.015 89.972C713.543 89.324 714.167 88.832 714.887 88.496C715.607 88.16 716.347 87.992 717.107 87.992C718.291 87.992 719.175 88.324 719.759 88.988C720.351 89.644 720.647 90.568 720.647 91.76V101H717.959V93.092C717.959 92.356 717.915 91.764 717.827 91.316C717.739 90.868 717.563 90.544 717.299 90.344C717.043 90.144 716.659 90.044 716.147 90.044C715.739 90.044 715.351 90.132 714.983 90.308C714.615 90.484 714.279 90.716 713.975 91.004C713.671 91.284 713.407 91.584 713.183 91.904V101H710.495ZM729.494 99.26C730.334 99.26 731.002 99.112 731.498 98.816C731.994 98.512 732.242 98.096 732.242 97.568C732.242 97.224 732.17 96.932 732.026 96.692C731.882 96.444 731.594 96.22 731.162 96.02C730.73 95.812 730.074 95.596 729.194 95.372C728.362 95.156 727.63 94.9 726.998 94.604C726.374 94.308 725.89 93.924 725.546 93.452C725.202 92.98 725.03 92.372 725.03 91.628C725.03 90.9 725.234 90.264 725.642 89.72C726.05 89.176 726.634 88.752 727.394 88.448C728.162 88.144 729.062 87.992 730.094 87.992C731.158 87.992 732.086 88.132 732.878 88.412C733.67 88.692 734.346 89.04 734.906 89.456L733.778 91.148C733.282 90.82 732.738 90.552 732.146 90.344C731.562 90.136 730.902 90.032 730.166 90.032C729.31 90.032 728.694 90.16 728.318 90.416C727.95 90.672 727.766 91.012 727.766 91.436C727.766 91.748 727.858 92.012 728.042 92.228C728.234 92.436 728.562 92.632 729.026 92.816C729.49 92.992 730.146 93.2 730.994 93.44C731.818 93.664 732.534 93.928 733.142 94.232C733.758 94.536 734.234 94.94 734.57 95.444C734.914 95.94 735.086 96.588 735.086 97.388C735.086 98.3 734.822 99.048 734.294 99.632C733.774 100.208 733.086 100.636 732.23 100.916C731.382 101.188 730.47 101.324 729.494 101.324C728.318 101.324 727.302 101.156 726.446 100.82C725.59 100.476 724.87 100.048 724.286 99.536L725.714 97.904C726.21 98.304 726.778 98.632 727.418 98.888C728.058 99.136 728.75 99.26 729.494 99.26Z" fill="white"/>
<rect width="41.472" height="28.704" transform="translate(11)" fill="#282C33"/>
<path d="M29.56 19.616C29.56 21.0453 29.0373 22.2507 27.992 23.232C26.968 24.2133 25.72 24.704 24.248 24.704C22.7333 24.704 21.4747 24.2133 20.472 23.232C19.4907 22.2507 19 21.0453 19 19.616C19 18.9333 19.096 18.208 19.288 17.44C19.48 16.672 19.864 15.68 20.44 14.464L25.4 4H30.2L27.544 15.584C28.1413 16.0107 28.6213 16.576 28.984 17.28C29.368 17.9627 29.56 18.7413 29.56 19.616ZM43.8 19.616C43.8 21.0453 43.2773 22.2507 42.232 23.232C41.1867 24.2133 39.9387 24.704 38.488 24.704C37.016 24.704 35.768 24.2133 34.744 23.232C33.7413 22.2507 33.24 21.0453 33.24 19.616C33.24 18.9333 33.336 18.208 33.528 17.44C33.72 16.672 34.1147 15.68 34.712 14.464L39.704 4H44.472L41.784 15.584C42.4027 16.0107 42.8933 16.576 43.256 17.28C43.6187 17.9627 43.8 18.7413 43.8 19.616Z" fill="#ABB2BF"/>
<rect width="41.472" height="28.704" transform="translate(841 94)" fill="#282C33"/>
<path d="M859.56 113.616C859.56 115.045 859.037 116.251 857.992 117.232C856.968 118.213 855.72 118.704 854.248 118.704C852.733 118.704 851.475 118.213 850.472 117.232C849.491 116.251 849 115.045 849 113.616C849 112.933 849.096 112.208 849.288 111.44C849.48 110.672 849.864 109.68 850.44 108.464L855.4 98H860.2L857.544 109.584C858.141 110.011 858.621 110.576 858.984 111.28C859.368 111.963 859.56 112.741 859.56 113.616ZM873.8 113.616C873.8 115.045 873.277 116.251 872.232 117.232C871.187 118.213 869.939 118.704 868.488 118.704C867.016 118.704 865.768 118.213 864.744 117.232C863.741 116.251 863.24 115.045 863.24 113.616C863.24 112.933 863.336 112.208 863.528 111.44C863.72 110.672 864.115 109.68 864.712 108.464L869.704 98H874.472L871.784 109.584C872.403 110.011 872.893 110.576 873.256 111.28C873.619 111.963 873.8 112.741 873.8 113.616Z" fill="#ABB2BF"/>
</svg>
